<mxfile host="app.diagrams.net" modified="2023-06-21T02:28:32.871Z" agent="Mozilla/5.0 (Windows NT 10.0; Win64; x64) AppleWebKit/537.36 (KHTML, like Gecko) Chrome/114.0.0.0 Safari/537.36" etag="2bGw_sX4KleMQ1JMgb2Y" version="21.5.0" type="github">
  <diagram id="C5RBs43oDa-KdzZeNtuy" name="Page-1">
    <mxGraphModel dx="1674" dy="796" grid="1" gridSize="10" guides="1" tooltips="1" connect="1" arrows="1" fold="1" page="1" pageScale="1" pageWidth="827" pageHeight="1169" math="0" shadow="0">
      <root>
        <mxCell id="WIyWlLk6GJQsqaUBKTNV-0" />
        <mxCell id="WIyWlLk6GJQsqaUBKTNV-1" parent="WIyWlLk6GJQsqaUBKTNV-0" />
        <mxCell id="YJT7IQ2GdDh8Gsf7lVZZ-2" value="" style="edgeStyle=orthogonalEdgeStyle;rounded=0;orthogonalLoop=1;jettySize=auto;html=1;" edge="1" parent="WIyWlLk6GJQsqaUBKTNV-1" source="YJT7IQ2GdDh8Gsf7lVZZ-0" target="YJT7IQ2GdDh8Gsf7lVZZ-1">
          <mxGeometry relative="1" as="geometry" />
        </mxCell>
        <mxCell id="YJT7IQ2GdDh8Gsf7lVZZ-0" value="Start&lt;br&gt;LcdUpdateScreen" style="ellipse;whiteSpace=wrap;html=1;" vertex="1" parent="WIyWlLk6GJQsqaUBKTNV-1">
          <mxGeometry x="20" y="60" width="120" height="80" as="geometry" />
        </mxCell>
        <mxCell id="YJT7IQ2GdDh8Gsf7lVZZ-4" value="" style="edgeStyle=orthogonalEdgeStyle;rounded=0;orthogonalLoop=1;jettySize=auto;html=1;" edge="1" parent="WIyWlLk6GJQsqaUBKTNV-1" source="YJT7IQ2GdDh8Gsf7lVZZ-1" target="YJT7IQ2GdDh8Gsf7lVZZ-3">
          <mxGeometry relative="1" as="geometry" />
        </mxCell>
        <mxCell id="YJT7IQ2GdDh8Gsf7lVZZ-33" style="edgeStyle=orthogonalEdgeStyle;rounded=0;orthogonalLoop=1;jettySize=auto;html=1;entryX=0;entryY=0.5;entryDx=0;entryDy=0;" edge="1" parent="WIyWlLk6GJQsqaUBKTNV-1" source="YJT7IQ2GdDh8Gsf7lVZZ-1" target="YJT7IQ2GdDh8Gsf7lVZZ-9">
          <mxGeometry relative="1" as="geometry">
            <Array as="points">
              <mxPoint x="255" y="190" />
            </Array>
          </mxGeometry>
        </mxCell>
        <mxCell id="YJT7IQ2GdDh8Gsf7lVZZ-50" style="edgeStyle=orthogonalEdgeStyle;rounded=0;orthogonalLoop=1;jettySize=auto;html=1;entryX=0.5;entryY=0;entryDx=0;entryDy=0;" edge="1" parent="WIyWlLk6GJQsqaUBKTNV-1" source="YJT7IQ2GdDh8Gsf7lVZZ-1" target="YJT7IQ2GdDh8Gsf7lVZZ-48">
          <mxGeometry relative="1" as="geometry" />
        </mxCell>
        <mxCell id="YJT7IQ2GdDh8Gsf7lVZZ-53" style="edgeStyle=orthogonalEdgeStyle;rounded=0;orthogonalLoop=1;jettySize=auto;html=1;entryX=0.5;entryY=0;entryDx=0;entryDy=0;" edge="1" parent="WIyWlLk6GJQsqaUBKTNV-1" source="YJT7IQ2GdDh8Gsf7lVZZ-1" target="YJT7IQ2GdDh8Gsf7lVZZ-52">
          <mxGeometry relative="1" as="geometry">
            <Array as="points">
              <mxPoint x="255" y="160" />
              <mxPoint x="90" y="160" />
            </Array>
          </mxGeometry>
        </mxCell>
        <mxCell id="YJT7IQ2GdDh8Gsf7lVZZ-1" value="Switch&lt;br&gt;Screen" style="rhombus;whiteSpace=wrap;html=1;" vertex="1" parent="WIyWlLk6GJQsqaUBKTNV-1">
          <mxGeometry x="200" y="60" width="110" height="80" as="geometry" />
        </mxCell>
        <mxCell id="YJT7IQ2GdDh8Gsf7lVZZ-12" value="" style="edgeStyle=orthogonalEdgeStyle;rounded=0;orthogonalLoop=1;jettySize=auto;html=1;" edge="1" parent="WIyWlLk6GJQsqaUBKTNV-1" source="YJT7IQ2GdDh8Gsf7lVZZ-3" target="YJT7IQ2GdDh8Gsf7lVZZ-11">
          <mxGeometry relative="1" as="geometry" />
        </mxCell>
        <mxCell id="YJT7IQ2GdDh8Gsf7lVZZ-3" value="Clear Screen and set cursor in line 0" style="whiteSpace=wrap;html=1;" vertex="1" parent="WIyWlLk6GJQsqaUBKTNV-1">
          <mxGeometry x="414" y="75" width="120" height="50" as="geometry" />
        </mxCell>
        <mxCell id="YJT7IQ2GdDh8Gsf7lVZZ-7" value="Screen 1" style="text;html=1;align=center;verticalAlign=middle;resizable=0;points=[];autosize=1;strokeColor=none;fillColor=none;" vertex="1" parent="WIyWlLk6GJQsqaUBKTNV-1">
          <mxGeometry x="325" y="75" width="70" height="30" as="geometry" />
        </mxCell>
        <mxCell id="YJT7IQ2GdDh8Gsf7lVZZ-36" value="" style="edgeStyle=orthogonalEdgeStyle;rounded=0;orthogonalLoop=1;jettySize=auto;html=1;" edge="1" parent="WIyWlLk6GJQsqaUBKTNV-1" source="YJT7IQ2GdDh8Gsf7lVZZ-9" target="YJT7IQ2GdDh8Gsf7lVZZ-35">
          <mxGeometry relative="1" as="geometry" />
        </mxCell>
        <mxCell id="YJT7IQ2GdDh8Gsf7lVZZ-9" value="Clear Screen and set cursor in line 0" style="whiteSpace=wrap;html=1;" vertex="1" parent="WIyWlLk6GJQsqaUBKTNV-1">
          <mxGeometry x="414" y="160" width="120" height="60" as="geometry" />
        </mxCell>
        <mxCell id="YJT7IQ2GdDh8Gsf7lVZZ-14" value="" style="edgeStyle=orthogonalEdgeStyle;rounded=0;orthogonalLoop=1;jettySize=auto;html=1;" edge="1" parent="WIyWlLk6GJQsqaUBKTNV-1" source="YJT7IQ2GdDh8Gsf7lVZZ-11">
          <mxGeometry relative="1" as="geometry">
            <mxPoint x="660" y="140" as="targetPoint" />
          </mxGeometry>
        </mxCell>
        <mxCell id="YJT7IQ2GdDh8Gsf7lVZZ-11" value="Get Set point Temperature" style="whiteSpace=wrap;html=1;" vertex="1" parent="WIyWlLk6GJQsqaUBKTNV-1">
          <mxGeometry x="600" y="80" width="120" height="40" as="geometry" />
        </mxCell>
        <mxCell id="YJT7IQ2GdDh8Gsf7lVZZ-29" value="" style="edgeStyle=orthogonalEdgeStyle;rounded=0;orthogonalLoop=1;jettySize=auto;html=1;" edge="1" parent="WIyWlLk6GJQsqaUBKTNV-1" source="YJT7IQ2GdDh8Gsf7lVZZ-17" target="YJT7IQ2GdDh8Gsf7lVZZ-27">
          <mxGeometry relative="1" as="geometry" />
        </mxCell>
        <mxCell id="YJT7IQ2GdDh8Gsf7lVZZ-17" value="LcdWriteString &quot;T.Des.: &amp;lt;SetPointTemp&amp;gt;ºC&quot;" style="shape=process;whiteSpace=wrap;html=1;backgroundOutline=1;" vertex="1" parent="WIyWlLk6GJQsqaUBKTNV-1">
          <mxGeometry x="590" y="140" width="140" height="70" as="geometry" />
        </mxCell>
        <mxCell id="YJT7IQ2GdDh8Gsf7lVZZ-24" value="" style="edgeStyle=orthogonalEdgeStyle;rounded=0;orthogonalLoop=1;jettySize=auto;html=1;" edge="1" parent="WIyWlLk6GJQsqaUBKTNV-1" source="YJT7IQ2GdDh8Gsf7lVZZ-21" target="YJT7IQ2GdDh8Gsf7lVZZ-23">
          <mxGeometry relative="1" as="geometry" />
        </mxCell>
        <mxCell id="YJT7IQ2GdDh8Gsf7lVZZ-21" value="Get Actual Temperature" style="whiteSpace=wrap;html=1;" vertex="1" parent="WIyWlLk6GJQsqaUBKTNV-1">
          <mxGeometry x="600" y="290" width="120" height="40" as="geometry" />
        </mxCell>
        <mxCell id="YJT7IQ2GdDh8Gsf7lVZZ-46" style="edgeStyle=orthogonalEdgeStyle;rounded=0;orthogonalLoop=1;jettySize=auto;html=1;entryX=1;entryY=0.5;entryDx=0;entryDy=0;" edge="1" parent="WIyWlLk6GJQsqaUBKTNV-1" source="YJT7IQ2GdDh8Gsf7lVZZ-23" target="YJT7IQ2GdDh8Gsf7lVZZ-25">
          <mxGeometry relative="1" as="geometry">
            <Array as="points">
              <mxPoint x="660" y="790" />
            </Array>
          </mxGeometry>
        </mxCell>
        <mxCell id="YJT7IQ2GdDh8Gsf7lVZZ-23" value="LcdWriteString&lt;br&gt;&quot;T.Atual: &amp;lt;ActualTemp&amp;gt; ºC&quot;" style="shape=process;whiteSpace=wrap;html=1;backgroundOutline=1;" vertex="1" parent="WIyWlLk6GJQsqaUBKTNV-1">
          <mxGeometry x="590" y="360" width="140" height="60" as="geometry" />
        </mxCell>
        <mxCell id="YJT7IQ2GdDh8Gsf7lVZZ-25" value="End&lt;br&gt;vLcdUpdateScreen" style="ellipse;whiteSpace=wrap;html=1;" vertex="1" parent="WIyWlLk6GJQsqaUBKTNV-1">
          <mxGeometry x="279" y="750" width="120" height="80" as="geometry" />
        </mxCell>
        <mxCell id="YJT7IQ2GdDh8Gsf7lVZZ-32" value="" style="edgeStyle=orthogonalEdgeStyle;rounded=0;orthogonalLoop=1;jettySize=auto;html=1;entryX=0.5;entryY=0;entryDx=0;entryDy=0;" edge="1" parent="WIyWlLk6GJQsqaUBKTNV-1" source="YJT7IQ2GdDh8Gsf7lVZZ-27" target="YJT7IQ2GdDh8Gsf7lVZZ-21">
          <mxGeometry relative="1" as="geometry">
            <mxPoint x="660" y="310" as="targetPoint" />
          </mxGeometry>
        </mxCell>
        <mxCell id="YJT7IQ2GdDh8Gsf7lVZZ-27" value="Set cursor in line 1" style="rounded=0;whiteSpace=wrap;html=1;" vertex="1" parent="WIyWlLk6GJQsqaUBKTNV-1">
          <mxGeometry x="600" y="230" width="120" height="40" as="geometry" />
        </mxCell>
        <mxCell id="YJT7IQ2GdDh8Gsf7lVZZ-34" value="Screen 2" style="text;html=1;align=center;verticalAlign=middle;resizable=0;points=[];autosize=1;strokeColor=none;fillColor=none;" vertex="1" parent="WIyWlLk6GJQsqaUBKTNV-1">
          <mxGeometry x="300" y="160" width="70" height="30" as="geometry" />
        </mxCell>
        <mxCell id="YJT7IQ2GdDh8Gsf7lVZZ-38" value="" style="edgeStyle=orthogonalEdgeStyle;rounded=0;orthogonalLoop=1;jettySize=auto;html=1;" edge="1" parent="WIyWlLk6GJQsqaUBKTNV-1" source="YJT7IQ2GdDh8Gsf7lVZZ-35" target="YJT7IQ2GdDh8Gsf7lVZZ-37">
          <mxGeometry relative="1" as="geometry" />
        </mxCell>
        <mxCell id="YJT7IQ2GdDh8Gsf7lVZZ-35" value="Get Heater Duty Cycle" style="whiteSpace=wrap;html=1;" vertex="1" parent="WIyWlLk6GJQsqaUBKTNV-1">
          <mxGeometry x="414" y="240" width="120" height="50" as="geometry" />
        </mxCell>
        <mxCell id="YJT7IQ2GdDh8Gsf7lVZZ-40" value="" style="edgeStyle=orthogonalEdgeStyle;rounded=0;orthogonalLoop=1;jettySize=auto;html=1;" edge="1" parent="WIyWlLk6GJQsqaUBKTNV-1" source="YJT7IQ2GdDh8Gsf7lVZZ-37" target="YJT7IQ2GdDh8Gsf7lVZZ-39">
          <mxGeometry relative="1" as="geometry" />
        </mxCell>
        <mxCell id="YJT7IQ2GdDh8Gsf7lVZZ-37" value="LcdWriteString&lt;br&gt;&quot;DutyHeater&lt;br&gt;&amp;lt;HeaterDutyCycle&amp;gt;&lt;br&gt;%&quot;" style="shape=process;whiteSpace=wrap;html=1;backgroundOutline=1;" vertex="1" parent="WIyWlLk6GJQsqaUBKTNV-1">
          <mxGeometry x="394" y="310" width="160" height="70" as="geometry" />
        </mxCell>
        <mxCell id="YJT7IQ2GdDh8Gsf7lVZZ-42" value="" style="edgeStyle=orthogonalEdgeStyle;rounded=0;orthogonalLoop=1;jettySize=auto;html=1;" edge="1" parent="WIyWlLk6GJQsqaUBKTNV-1" source="YJT7IQ2GdDh8Gsf7lVZZ-39" target="YJT7IQ2GdDh8Gsf7lVZZ-41">
          <mxGeometry relative="1" as="geometry" />
        </mxCell>
        <mxCell id="YJT7IQ2GdDh8Gsf7lVZZ-39" value="Set cursor in line 1" style="whiteSpace=wrap;html=1;" vertex="1" parent="WIyWlLk6GJQsqaUBKTNV-1">
          <mxGeometry x="414" y="400" width="120" height="40" as="geometry" />
        </mxCell>
        <mxCell id="YJT7IQ2GdDh8Gsf7lVZZ-44" value="" style="edgeStyle=orthogonalEdgeStyle;rounded=0;orthogonalLoop=1;jettySize=auto;html=1;" edge="1" parent="WIyWlLk6GJQsqaUBKTNV-1" source="YJT7IQ2GdDh8Gsf7lVZZ-41" target="YJT7IQ2GdDh8Gsf7lVZZ-43">
          <mxGeometry relative="1" as="geometry" />
        </mxCell>
        <mxCell id="YJT7IQ2GdDh8Gsf7lVZZ-41" value="Get Cooler Duty Cycle" style="whiteSpace=wrap;html=1;" vertex="1" parent="WIyWlLk6GJQsqaUBKTNV-1">
          <mxGeometry x="414" y="460" width="120" height="40" as="geometry" />
        </mxCell>
        <mxCell id="YJT7IQ2GdDh8Gsf7lVZZ-47" style="edgeStyle=orthogonalEdgeStyle;rounded=0;orthogonalLoop=1;jettySize=auto;html=1;entryX=0.5;entryY=0;entryDx=0;entryDy=0;" edge="1" parent="WIyWlLk6GJQsqaUBKTNV-1" source="YJT7IQ2GdDh8Gsf7lVZZ-43" target="YJT7IQ2GdDh8Gsf7lVZZ-25">
          <mxGeometry relative="1" as="geometry" />
        </mxCell>
        <mxCell id="YJT7IQ2GdDh8Gsf7lVZZ-43" value="LcdWriteString&lt;br style=&quot;border-color: var(--border-color);&quot;&gt;&quot;DutyCooler&lt;br style=&quot;border-color: var(--border-color);&quot;&gt;&amp;lt;CoolerDutyCycle&amp;gt;&lt;br style=&quot;border-color: var(--border-color);&quot;&gt;%&quot;" style="shape=process;whiteSpace=wrap;html=1;backgroundOutline=1;" vertex="1" parent="WIyWlLk6GJQsqaUBKTNV-1">
          <mxGeometry x="399" y="520" width="150" height="60" as="geometry" />
        </mxCell>
        <mxCell id="YJT7IQ2GdDh8Gsf7lVZZ-62" value="" style="edgeStyle=orthogonalEdgeStyle;rounded=0;orthogonalLoop=1;jettySize=auto;html=1;" edge="1" parent="WIyWlLk6GJQsqaUBKTNV-1" source="YJT7IQ2GdDh8Gsf7lVZZ-48" target="YJT7IQ2GdDh8Gsf7lVZZ-61">
          <mxGeometry relative="1" as="geometry" />
        </mxCell>
        <mxCell id="YJT7IQ2GdDh8Gsf7lVZZ-48" value="Clear Screen and set cursor in line 0" style="whiteSpace=wrap;html=1;" vertex="1" parent="WIyWlLk6GJQsqaUBKTNV-1">
          <mxGeometry x="195" y="240" width="120" height="50" as="geometry" />
        </mxCell>
        <mxCell id="YJT7IQ2GdDh8Gsf7lVZZ-51" value="Screen 3" style="text;html=1;align=center;verticalAlign=middle;resizable=0;points=[];autosize=1;strokeColor=none;fillColor=none;" vertex="1" parent="WIyWlLk6GJQsqaUBKTNV-1">
          <mxGeometry x="180" y="200" width="70" height="30" as="geometry" />
        </mxCell>
        <mxCell id="YJT7IQ2GdDh8Gsf7lVZZ-72" value="" style="edgeStyle=orthogonalEdgeStyle;rounded=0;orthogonalLoop=1;jettySize=auto;html=1;" edge="1" parent="WIyWlLk6GJQsqaUBKTNV-1" source="YJT7IQ2GdDh8Gsf7lVZZ-52" target="YJT7IQ2GdDh8Gsf7lVZZ-71">
          <mxGeometry relative="1" as="geometry" />
        </mxCell>
        <mxCell id="YJT7IQ2GdDh8Gsf7lVZZ-52" value="Clear Screen and set cursor in line 0" style="whiteSpace=wrap;html=1;" vertex="1" parent="WIyWlLk6GJQsqaUBKTNV-1">
          <mxGeometry x="30" y="240" width="120" height="50" as="geometry" />
        </mxCell>
        <mxCell id="YJT7IQ2GdDh8Gsf7lVZZ-54" value="Screen 4" style="text;html=1;align=center;verticalAlign=middle;resizable=0;points=[];autosize=1;strokeColor=none;fillColor=none;" vertex="1" parent="WIyWlLk6GJQsqaUBKTNV-1">
          <mxGeometry x="10" y="200" width="70" height="30" as="geometry" />
        </mxCell>
        <mxCell id="YJT7IQ2GdDh8Gsf7lVZZ-65" value="" style="edgeStyle=orthogonalEdgeStyle;rounded=0;orthogonalLoop=1;jettySize=auto;html=1;" edge="1" parent="WIyWlLk6GJQsqaUBKTNV-1" source="YJT7IQ2GdDh8Gsf7lVZZ-58" target="YJT7IQ2GdDh8Gsf7lVZZ-64">
          <mxGeometry relative="1" as="geometry" />
        </mxCell>
        <mxCell id="YJT7IQ2GdDh8Gsf7lVZZ-58" value="LcdWriteString&lt;br style=&quot;border-color: var(--border-color);&quot;&gt;&quot;Kp: &amp;lt;Kp&amp;gt;&quot;" style="shape=process;whiteSpace=wrap;html=1;backgroundOutline=1;" vertex="1" parent="WIyWlLk6GJQsqaUBKTNV-1">
          <mxGeometry x="195" y="380" width="120" height="60" as="geometry" />
        </mxCell>
        <mxCell id="YJT7IQ2GdDh8Gsf7lVZZ-63" value="" style="edgeStyle=orthogonalEdgeStyle;rounded=0;orthogonalLoop=1;jettySize=auto;html=1;" edge="1" parent="WIyWlLk6GJQsqaUBKTNV-1" source="YJT7IQ2GdDh8Gsf7lVZZ-61" target="YJT7IQ2GdDh8Gsf7lVZZ-58">
          <mxGeometry relative="1" as="geometry" />
        </mxCell>
        <mxCell id="YJT7IQ2GdDh8Gsf7lVZZ-61" value="Get Kp" style="rounded=0;whiteSpace=wrap;html=1;" vertex="1" parent="WIyWlLk6GJQsqaUBKTNV-1">
          <mxGeometry x="212.5" y="320" width="85" height="35" as="geometry" />
        </mxCell>
        <mxCell id="YJT7IQ2GdDh8Gsf7lVZZ-67" value="" style="edgeStyle=orthogonalEdgeStyle;rounded=0;orthogonalLoop=1;jettySize=auto;html=1;" edge="1" parent="WIyWlLk6GJQsqaUBKTNV-1" source="YJT7IQ2GdDh8Gsf7lVZZ-64" target="YJT7IQ2GdDh8Gsf7lVZZ-66">
          <mxGeometry relative="1" as="geometry" />
        </mxCell>
        <mxCell id="YJT7IQ2GdDh8Gsf7lVZZ-64" value="Set cursor in line 1" style="whiteSpace=wrap;html=1;" vertex="1" parent="WIyWlLk6GJQsqaUBKTNV-1">
          <mxGeometry x="195" y="470" width="120" height="40" as="geometry" />
        </mxCell>
        <mxCell id="YJT7IQ2GdDh8Gsf7lVZZ-69" value="" style="edgeStyle=orthogonalEdgeStyle;rounded=0;orthogonalLoop=1;jettySize=auto;html=1;" edge="1" parent="WIyWlLk6GJQsqaUBKTNV-1" source="YJT7IQ2GdDh8Gsf7lVZZ-66" target="YJT7IQ2GdDh8Gsf7lVZZ-68">
          <mxGeometry relative="1" as="geometry" />
        </mxCell>
        <mxCell id="YJT7IQ2GdDh8Gsf7lVZZ-66" value="Get Ki" style="whiteSpace=wrap;html=1;" vertex="1" parent="WIyWlLk6GJQsqaUBKTNV-1">
          <mxGeometry x="195" y="540" width="120" height="40" as="geometry" />
        </mxCell>
        <mxCell id="YJT7IQ2GdDh8Gsf7lVZZ-70" style="edgeStyle=orthogonalEdgeStyle;rounded=0;orthogonalLoop=1;jettySize=auto;html=1;entryX=0;entryY=0.5;entryDx=0;entryDy=0;" edge="1" parent="WIyWlLk6GJQsqaUBKTNV-1" source="YJT7IQ2GdDh8Gsf7lVZZ-68" target="YJT7IQ2GdDh8Gsf7lVZZ-25">
          <mxGeometry relative="1" as="geometry" />
        </mxCell>
        <mxCell id="YJT7IQ2GdDh8Gsf7lVZZ-68" value="LcdWriteString&lt;br style=&quot;border-color: var(--border-color);&quot;&gt;&quot;Ki: &amp;lt;Ki&amp;gt;&quot;" style="shape=process;whiteSpace=wrap;html=1;backgroundOutline=1;" vertex="1" parent="WIyWlLk6GJQsqaUBKTNV-1">
          <mxGeometry x="195" y="610" width="120" height="60" as="geometry" />
        </mxCell>
        <mxCell id="YJT7IQ2GdDh8Gsf7lVZZ-71" value="Get Cooler Speed" style="whiteSpace=wrap;html=1;" vertex="1" parent="WIyWlLk6GJQsqaUBKTNV-1">
          <mxGeometry x="30" y="320" width="120" height="40" as="geometry" />
        </mxCell>
        <mxCell id="YJT7IQ2GdDh8Gsf7lVZZ-75" value="" style="edgeStyle=orthogonalEdgeStyle;rounded=0;orthogonalLoop=1;jettySize=auto;html=1;" edge="1" parent="WIyWlLk6GJQsqaUBKTNV-1" source="YJT7IQ2GdDh8Gsf7lVZZ-73" target="YJT7IQ2GdDh8Gsf7lVZZ-74">
          <mxGeometry relative="1" as="geometry" />
        </mxCell>
        <mxCell id="YJT7IQ2GdDh8Gsf7lVZZ-73" value="LcdWriteString&lt;br style=&quot;border-color: var(--border-color);&quot;&gt;&quot;Cooler Speed:&quot;" style="shape=process;whiteSpace=wrap;html=1;backgroundOutline=1;" vertex="1" parent="WIyWlLk6GJQsqaUBKTNV-1">
          <mxGeometry x="30" y="380" width="120" height="60" as="geometry" />
        </mxCell>
        <mxCell id="YJT7IQ2GdDh8Gsf7lVZZ-77" value="" style="edgeStyle=orthogonalEdgeStyle;rounded=0;orthogonalLoop=1;jettySize=auto;html=1;" edge="1" parent="WIyWlLk6GJQsqaUBKTNV-1" source="YJT7IQ2GdDh8Gsf7lVZZ-74" target="YJT7IQ2GdDh8Gsf7lVZZ-76">
          <mxGeometry relative="1" as="geometry" />
        </mxCell>
        <mxCell id="YJT7IQ2GdDh8Gsf7lVZZ-74" value="Set cursor in line 1" style="whiteSpace=wrap;html=1;" vertex="1" parent="WIyWlLk6GJQsqaUBKTNV-1">
          <mxGeometry x="30" y="470" width="120" height="40" as="geometry" />
        </mxCell>
        <mxCell id="YJT7IQ2GdDh8Gsf7lVZZ-78" style="edgeStyle=orthogonalEdgeStyle;rounded=0;orthogonalLoop=1;jettySize=auto;html=1;entryX=0.5;entryY=1;entryDx=0;entryDy=0;" edge="1" parent="WIyWlLk6GJQsqaUBKTNV-1" source="YJT7IQ2GdDh8Gsf7lVZZ-76" target="YJT7IQ2GdDh8Gsf7lVZZ-25">
          <mxGeometry relative="1" as="geometry">
            <Array as="points">
              <mxPoint x="90" y="850" />
              <mxPoint x="339" y="850" />
            </Array>
          </mxGeometry>
        </mxCell>
        <mxCell id="YJT7IQ2GdDh8Gsf7lVZZ-76" value="LcdWriteString&lt;br style=&quot;border-color: var(--border-color);&quot;&gt;&quot;&amp;lt;CoolerSpeed&amp;gt; RPM&quot;" style="shape=process;whiteSpace=wrap;html=1;backgroundOutline=1;" vertex="1" parent="WIyWlLk6GJQsqaUBKTNV-1">
          <mxGeometry x="30" y="540" width="120" height="60" as="geometry" />
        </mxCell>
      </root>
    </mxGraphModel>
  </diagram>
</mxfile>
